<?xml version="1.0" encoding="utf-8"?>
<!DOCTYPE svg PUBLIC "-//W3C//DTD SVG 1.1//EN" "http://www.w3.org/Graphics/SVG/1.1/DTD/svg11.dtd">
<svg version="1.1" xmlns="http://www.w3.org/2000/svg" xmlns:xlink="http://www.w3.org/1999/xlink" x="0px" y="0px" viewBox="0 0 1000 1000" enable-background="new 0 0 1000 1000" xml:space="preserve">
<g><path fill="#ffffff" d="M689.1,298c77.4,51.6,128.9,137.5,137.5,240.7c25.8,0,51.6,8.6,77.4,17.2c-8.6-137.5-77.4-257.9-189.1-326.7C706.3,246.4,706.3,272.2,689.1,298z"/><path fill="#ffffff" d="M637.5,865.4c-43,17.2-86,34.4-137.5,34.4c-51.6,0-94.6-8.6-137.5-34.4c-17.2,25.8-34.4,43-51.6,60.2c60.2,34.4,120.4,51.6,189.1,51.6s137.5-17.2,189.1-51.6C671.9,908.3,654.7,891.1,637.5,865.4z"/><path fill="#ffffff" d="M173.3,538.7c8.6-103.2,60.2-189.1,137.5-240.7c-8.6-25.8-17.2-51.6-25.8-77.4C173.3,289.4,104.6,418.3,96,555.9C121.8,547.3,147.5,538.7,173.3,538.7z"/><path fill="#ffffff" d="M181.9,667.6c51.6,0,86,34.4,86,86c0,51.6-34.4,86-86,86c-51.6,0-86-34.4-86-86C96,702,130.4,667.6,181.9,667.6 M181.9,581.7C87.4,581.7,10,659,10,753.6c0,94.6,77.4,171.9,171.9,171.9c94.6,0,171.9-77.4,171.9-171.9C353.9,659,276.5,581.7,181.9,581.7L181.9,581.7z"/><path fill="#ffffff" d="M500,108.9c51.6,0,86,34.4,86,86c0,51.6-34.4,86-86,86c-51.6,0-86-34.4-86-86C414,143.2,457,108.9,500,108.9 M500,22.9c-94.6,0-171.9,77.4-171.9,171.9S405.4,366.8,500,366.8c94.6,0,171.9-77.4,171.9-171.9S594.6,22.9,500,22.9L500,22.9z"/><path fill="#ffffff" d="M818.1,667.6c51.6,0,86,34.4,86,86c0,51.6-34.4,86-86,86c-51.6,0-86-34.4-86-86C732.1,702,775.1,667.6,818.1,667.6 M818.1,581.7c-94.6,0-171.9,77.4-171.9,171.9c0,94.6,77.4,171.9,171.9,171.9c94.6,0,171.9-77.4,171.9-171.9C990,659,912.6,581.7,818.1,581.7L818.1,581.7z"/><path fill="#ffffff" d="M181.9,667.6c51.6,0,86,34.4,86,86c0,51.6-34.4,86-86,86c-51.6,0-86-34.4-86-86C96,702,130.4,667.6,181.9,667.6 M181.9,581.7C87.4,581.7,10,659,10,753.6c0,94.6,77.4,171.9,171.9,171.9c94.6,0,171.9-77.4,171.9-171.9C353.9,659,276.5,581.7,181.9,581.7L181.9,581.7z"/></g>
</svg>