<?xml version="1.0" encoding="utf-8"?>
<!DOCTYPE svg PUBLIC "-//W3C//DTD SVG 1.1//EN" "http://www.w3.org/Graphics/SVG/1.1/DTD/svg11.dtd">
<svg version="1.1" xmlns="http://www.w3.org/2000/svg" xmlns:xlink="http://www.w3.org/1999/xlink" x="0px" y="0px" viewBox="0 0 1000 1000" enable-background="new 0 0 1000 1000" xml:space="preserve">

<g><g transform="translate(0.000000,512.000000) scale(0.100000,-0.100000)"><path fill="#ffffff" d="M4524.8,5006.5c-904.5-92-1764.9-429.2-2491.2-973.5c-243.4-184-657.3-586.4-858.5-835.5C707.6,2616.9,335.9,1837,196,1133.7c-84.3-413.9-97.7-561.5-95.8-1021.4c0-454.2,23-670.7,105.4-1054c143.7-657.3,454.2-1329.9,885.3-1904.8c176.3-237.6,697.5-758.8,935.1-935.1c839.3-626.6,1770.6-958.1,2805.4-994.5c1121-42.2,2209.5,302.8,3129.3,992.6c228,170.5,649.6,578.7,837.4,810.6C9505.3-2101,9898.1-993.4,9900,131.5c0,1099.9-398.6,2221-1101.9,3085.2c-187.8,231.9-609.4,640-837.4,810.6c-676.5,505.9-1429.5,822.1-2276.6,952.4C5444.7,5016.1,4770.1,5033.3,4524.8,5006.5z M5511.7,4732.5c1356.7-153.3,2573.6-891.1,3334.3-2023.6c783.8-1167,996.5-2652.1,571.1-3982c-235.7-739.7-601.7-1339.5-1144-1883.7c-429.2-429.2-904.5-753.1-1441-981.1c-1448.7-617-3098.6-471.4-4394,390.9C753.6-2628-7.1-600.5,519.8,1359.8C728.7,2134,1196.3,2912,1796.1,3483c737.8,701.4,1711.2,1153.6,2700,1255.2C4754.8,4763.1,5251.1,4761.2,5511.7,4732.5z"></path><path fill="#ffffff" d="M2315.4,1706.7l-42.2-44.1V58.7c0-1579,0-1603.9,38.3-1642.3c38.3-38.3,63.2-38.3,1931.6-38.3h1891.4l321.9-243.4c237.6-178.2,337.3-241.4,377.5-241.4c105.4,0,812.5,615.1,1019.5,887.2c191.6,253,293.2,569.1,249.1,781.8C8052.7-202,7910.9-16.1,7692.5,93.2c-74.7,36.4-147.6,67.1-161,67.1c-23,0-26.8,128.4-26.8,745.4c0,724.4-1.9,745.4-40.2,795.3l-38.3,49.8H4890.9H2355.6L2315.4,1706.7z M6860.8,1465.2c-36.4-34.5-1958.4-1228.3-1977.6-1228.3c-23,0-1914.4,1178.5-1958.4,1218.8c-23,23,262.5,26.8,1964.2,26.8C6046.4,1482.5,6872.3,1474.8,6860.8,1465.2z M3729.6,629.7C4584.3,95.1,4862.1-69.7,4898.5-65.9c26.8,3.8,488.6,283.6,1025.2,622.8c538.5,337.3,1048.2,657.3,1136.4,712.9l157.1,97.7V767.7V166l-74.7-23c-40.2-11.5-126.5-55.6-189.7-97.7c-63.3-42.2-120.7-76.7-128.4-76.7c-7.7,0-40.2,21.1-70.9,47.9C6399,315.4,5831.8,167.9,5621-276.7c-55.6-116.9-61.3-143.7-61.3-320c0-241.5,49.8-394.8,193.6-607.5l101.6-149.5H4199.1H2541.5V6.9c0,1291.6,1.9,1360.6,34.5,1343.3C2593.2,1340.7,3112.5,1016.8,3729.6,629.7z M6525.4-148.3c47.9-21.1,122.6-78.6,166.7-126.5c113.1-122.6,166.7-120.7,293.2,7.7c124.6,126.5,226.1,166.7,400.5,155.2c252.9-13.4,425.4-182,440.7-427.3c15.3-220.4-93.9-433.1-358.4-707.1c-189.7-197.4-615.1-551.9-647.7-540.4c-76.7,30.7-519.3,387.1-670.7,542.3c-224.2,228-295.1,364.1-308.5,586.4c-13.4,212.7,17.2,300.9,139.9,412c55.6,51.7,130.3,101.6,164.8,113.1C6255.3-98.5,6431.5-104.2,6525.4-148.3z"></path></g></g>
</svg>